<mxfile host="app.diagrams.net" agent="Mozilla/5.0 (X11; Linux x86_64) AppleWebKit/537.36 (KHTML, like Gecko) Chrome/138.0.0.0 Safari/537.36" version="28.2.7">
  <diagram name="第 1 页" id="qhN7miFrTIp3A3xxmaxs">
    <mxGraphModel dx="679" dy="367" grid="1" gridSize="10" guides="1" tooltips="1" connect="1" arrows="1" fold="1" page="1" pageScale="1" pageWidth="2339" pageHeight="3300" math="0" shadow="0">
      <root>
        <mxCell id="0" />
        <mxCell id="1" parent="0" />
        <mxCell id="9WwuOF5j7Q6B2M_Bv8Pl-17" value="" style="rounded=0;whiteSpace=wrap;html=1;fillColor=none;" vertex="1" parent="1">
          <mxGeometry x="960" y="320" width="180" height="150" as="geometry" />
        </mxCell>
        <mxCell id="9WwuOF5j7Q6B2M_Bv8Pl-19" value="Memory Layout" style="text;html=1;whiteSpace=wrap;strokeColor=none;fillColor=none;align=center;verticalAlign=middle;rounded=0;fontFamily=Helvetica;fontSize=20;fontColor=default;" vertex="1" parent="1">
          <mxGeometry x="975" y="290" width="150" height="30" as="geometry" />
        </mxCell>
        <mxCell id="9WwuOF5j7Q6B2M_Bv8Pl-23" value="0 ~ 1 GB" style="text;html=1;whiteSpace=wrap;strokeColor=none;fillColor=none;align=center;verticalAlign=middle;rounded=0;fontFamily=Helvetica;fontSize=12;fontColor=default;" vertex="1" parent="1">
          <mxGeometry x="1020" y="320" width="60" height="30" as="geometry" />
        </mxCell>
        <mxCell id="9WwuOF5j7Q6B2M_Bv8Pl-25" value="" style="endArrow=none;html=1;rounded=0;fontFamily=Helvetica;fontSize=12;fontColor=default;entryX=0.995;entryY=0.099;entryDx=0;entryDy=0;entryPerimeter=0;" edge="1" parent="1">
          <mxGeometry width="50" height="50" relative="1" as="geometry">
            <mxPoint x="961" y="380" as="sourcePoint" />
            <mxPoint x="1140" y="380" as="targetPoint" />
          </mxGeometry>
        </mxCell>
        <mxCell id="9WwuOF5j7Q6B2M_Bv8Pl-26" value="1 ~ 2 GB" style="text;html=1;whiteSpace=wrap;strokeColor=none;fillColor=none;align=center;verticalAlign=middle;rounded=0;fontFamily=Helvetica;fontSize=12;fontColor=default;" vertex="1" parent="1">
          <mxGeometry x="1020" y="350" width="60" height="30" as="geometry" />
        </mxCell>
        <mxCell id="9WwuOF5j7Q6B2M_Bv8Pl-27" value="4 ~ 8 GB" style="text;html=1;whiteSpace=wrap;strokeColor=none;fillColor=none;align=center;verticalAlign=middle;rounded=0;fontFamily=Helvetica;fontSize=12;fontColor=default;" vertex="1" parent="1">
          <mxGeometry x="1020" y="380" width="60" height="30" as="geometry" />
        </mxCell>
        <mxCell id="9WwuOF5j7Q6B2M_Bv8Pl-28" value="" style="endArrow=none;html=1;rounded=0;fontFamily=Helvetica;fontSize=12;fontColor=default;entryX=0.995;entryY=0.099;entryDx=0;entryDy=0;entryPerimeter=0;" edge="1" parent="1">
          <mxGeometry width="50" height="50" relative="1" as="geometry">
            <mxPoint x="961" y="410" as="sourcePoint" />
            <mxPoint x="1140" y="410" as="targetPoint" />
          </mxGeometry>
        </mxCell>
        <mxCell id="9WwuOF5j7Q6B2M_Bv8Pl-29" value="8 ~ 16 GB" style="text;html=1;whiteSpace=wrap;strokeColor=none;fillColor=none;align=center;verticalAlign=middle;rounded=0;fontFamily=Helvetica;fontSize=12;fontColor=default;" vertex="1" parent="1">
          <mxGeometry x="1020" y="410" width="60" height="30" as="geometry" />
        </mxCell>
        <mxCell id="9WwuOF5j7Q6B2M_Bv8Pl-30" value="" style="endArrow=none;html=1;rounded=0;fontFamily=Helvetica;fontSize=12;fontColor=default;entryX=0.995;entryY=0.099;entryDx=0;entryDy=0;entryPerimeter=0;" edge="1" parent="1">
          <mxGeometry width="50" height="50" relative="1" as="geometry">
            <mxPoint x="960" y="440" as="sourcePoint" />
            <mxPoint x="1139" y="440" as="targetPoint" />
          </mxGeometry>
        </mxCell>
        <mxCell id="9WwuOF5j7Q6B2M_Bv8Pl-31" value="16 ~ 18 GB" style="text;html=1;whiteSpace=wrap;strokeColor=none;fillColor=none;align=center;verticalAlign=middle;rounded=0;fontFamily=Helvetica;fontSize=12;fontColor=default;" vertex="1" parent="1">
          <mxGeometry x="1010" y="440" width="80" height="30" as="geometry" />
        </mxCell>
        <mxCell id="9WwuOF5j7Q6B2M_Bv8Pl-33" value="" style="endArrow=none;html=1;rounded=0;fontFamily=Helvetica;fontSize=12;fontColor=default;entryX=0.995;entryY=0.099;entryDx=0;entryDy=0;entryPerimeter=0;" edge="1" parent="1">
          <mxGeometry width="50" height="50" relative="1" as="geometry">
            <mxPoint x="961" y="349.72" as="sourcePoint" />
            <mxPoint x="1140" y="349.72" as="targetPoint" />
          </mxGeometry>
        </mxCell>
        <mxCell id="9WwuOF5j7Q6B2M_Bv8Pl-34" value="Linux A" style="text;html=1;whiteSpace=wrap;strokeColor=none;fillColor=none;align=center;verticalAlign=middle;rounded=0;fontFamily=Helvetica;fontSize=12;fontColor=default;" vertex="1" parent="1">
          <mxGeometry x="960" y="320" width="60" height="30" as="geometry" />
        </mxCell>
        <mxCell id="9WwuOF5j7Q6B2M_Bv8Pl-35" value="Linux A" style="text;html=1;whiteSpace=wrap;strokeColor=none;fillColor=none;align=center;verticalAlign=middle;rounded=0;fontFamily=Helvetica;fontSize=12;fontColor=default;" vertex="1" parent="1">
          <mxGeometry x="960" y="380" width="60" height="30" as="geometry" />
        </mxCell>
        <mxCell id="9WwuOF5j7Q6B2M_Bv8Pl-36" value="Linux A" style="text;html=1;whiteSpace=wrap;strokeColor=none;fillColor=none;align=center;verticalAlign=middle;rounded=0;fontFamily=Helvetica;fontSize=12;fontColor=default;" vertex="1" parent="1">
          <mxGeometry x="960" y="440" width="60" height="30" as="geometry" />
        </mxCell>
        <mxCell id="9WwuOF5j7Q6B2M_Bv8Pl-37" value="Linux B" style="text;html=1;whiteSpace=wrap;strokeColor=none;fillColor=none;align=center;verticalAlign=middle;rounded=0;fontFamily=Helvetica;fontSize=12;fontColor=default;" vertex="1" parent="1">
          <mxGeometry x="960" y="350" width="60" height="30" as="geometry" />
        </mxCell>
        <mxCell id="9WwuOF5j7Q6B2M_Bv8Pl-38" value="Linux B" style="text;html=1;whiteSpace=wrap;strokeColor=none;fillColor=none;align=center;verticalAlign=middle;rounded=0;fontFamily=Helvetica;fontSize=12;fontColor=default;" vertex="1" parent="1">
          <mxGeometry x="960" y="410" width="60" height="30" as="geometry" />
        </mxCell>
        <mxCell id="9WwuOF5j7Q6B2M_Bv8Pl-42" value="" style="shape=doubleArrow;direction=south;whiteSpace=wrap;html=1;rounded=0;strokeColor=default;align=center;verticalAlign=middle;fontFamily=Helvetica;fontSize=12;fontColor=default;fillColor=none;" vertex="1" parent="1">
          <mxGeometry x="1150" y="320" width="60" height="60" as="geometry" />
        </mxCell>
        <mxCell id="9WwuOF5j7Q6B2M_Bv8Pl-43" value="" style="endArrow=none;html=1;rounded=0;fontFamily=Helvetica;fontSize=12;fontColor=default;dashed=1;" edge="1" parent="1">
          <mxGeometry width="50" height="50" relative="1" as="geometry">
            <mxPoint x="1140" y="319.81" as="sourcePoint" />
            <mxPoint x="1220" y="320" as="targetPoint" />
          </mxGeometry>
        </mxCell>
        <mxCell id="9WwuOF5j7Q6B2M_Bv8Pl-44" value="" style="endArrow=none;html=1;rounded=0;fontFamily=Helvetica;fontSize=12;fontColor=default;dashed=1;" edge="1" parent="1">
          <mxGeometry width="50" height="50" relative="1" as="geometry">
            <mxPoint x="1140" y="380" as="sourcePoint" />
            <mxPoint x="1220" y="380.19" as="targetPoint" />
          </mxGeometry>
        </mxCell>
        <mxCell id="9WwuOF5j7Q6B2M_Bv8Pl-45" value="0 ~ 2 GB can be accessed by IO device directly" style="text;html=1;whiteSpace=wrap;strokeColor=none;fillColor=none;align=center;verticalAlign=middle;rounded=0;fontFamily=Helvetica;fontSize=12;fontColor=default;" vertex="1" parent="1">
          <mxGeometry x="1220" y="320" width="110" height="60" as="geometry" />
        </mxCell>
      </root>
    </mxGraphModel>
  </diagram>
</mxfile>
